<svg xmlns="http://www.w3.org/2000/svg" width="16" height="16" viewBox="0 0 24 24" fill="none">
  <path d="M20.1,16.007h-9.187c-1.047,0-1.899-0.897-1.899-2s0.853-2,1.899-2H20.1c1.048,0,1.9,0.897,1.9,2S21.147,16.007,20.1,16.007z" fill="white"/>
  <path d="M10.538,24c-1.621,0-3.011-0.55-4.021-1.589l-3.949-4.09C1.557,17.278,1,15.803,1,14.167c0-1.61,0.557-3.072,1.568-4.117l9.174-9.47C12.104,0.206,12.592,0,13.113,0c0,0,0,0,0.001,0c0.54,0,1.049,0.218,1.434,0.614c0.766,0.792,0.78,2.061,0.032,2.828l-1.443,1.511C13.549,5.18,13.985,5.5,14.511,5.95l2.361,1.963c0.804,0.824,0.788,2.093,0.024,2.882c-0.386,0.397-0.895,0.615-1.435,0.615c-0.001,0-0.001,0-0.002,0c-0.521,0-1.007-0.207-1.367-0.581l-2.377-1.876c-0.668-0.497-0.783-0.534-1.19-0.534c-0.422,0-0.803,0.159-1.164,0.486l-3.886,4.069c-0.282,0.291-0.43,0.702-0.43,1.191c0,0.498,0.155,0.945,0.427,1.226l3.937,4.091c0.251,0.26,0.627,0.392,1.116,0.392c0.49,0,0.866-0.132,1.116-0.392l2.461-2.454c0.351-0.363,0.836-0.569,1.357-0.57c0,0,0.001,0,0.002,0c0.539,0,1.049,0.219,1.434,0.616c0.765,0.79,0.78,2.058,0.034,2.825l-2.365,2.469C13.542,23.422,12.113,24,10.538,24z" fill="white"/>
</svg>
