<svg xmlns="http://www.w3.org/2000/svg" version="1.0" viewBox="0 0 700 875" preserveAspectRatio="xMidYMid meet" x="0px" y="0px"><g transform="translate(0.000000,700.000000) scale(0.100000,-0.100000)" fill="#000000" stroke="none"><path d="M3288 6476 c-52 -19 -85 -42 -99 -68 -10 -19 -9 -20 7 -14 49 20 92 18 157 -8 65 -26 67 -27 94 -9 44 29 135 23 215 -14 88 -41 136 -87 183 -175 57 -104 115 -160 195 -189 55 -19 78 -36 151 -108 129 -129 183 -250 215 -490 26 -201 13 -451 -37 -661 -71 -305 -242 -724 -330 -810 -20 -19 -110 -75 -200 -125 -211 -115 -453 -253 -650 -371 -86 -52 -165 -94 -176 -94 -11 0 -54 -18 -95 -40 -84 -44 -171 -70 -233 -70 l-40 1 40 22 40 22 -31 3 c-17 2 -61 -8 -99 -22 -67 -26 -165 -35 -165 -16 0 5 44 23 97 40 53 17 104 35 112 40 10 6 -54 8 -166 7 -217 -2 -247 8 -121 42 46 12 92 29 102 36 18 14 10 15 -76 15 -104 0 -130 11 -71 30 21 7 41 15 46 19 4 4 -17 28 -46 53 -45 39 -117 145 -117 173 0 4 31 -22 69 -58 79 -74 143 -115 202 -128 40 -9 89 -3 89 11 0 4 -38 22 -84 39 -89 34 -109 49 -104 78 2 11 -15 35 -45 62 -77 71 -60 80 47 26 69 -35 141 -45 190 -26 16 6 12 12 -31 43 -28 20 -82 74 -120 120 -83 98 -103 117 -103 96 0 -12 36 -67 119 -179 12 -17 11 -19 -15 -19 -63 0 -173 158 -162 232 4 30 26 26 83 -14 25 -18 47 -29 51 -25 11 11 -49 79 -105 117 -61 41 -98 77 -88 86 6 6 32 -9 136 -83 74 -53 87 -58 76 -32 -7 16 -153 137 -257 214 -37 28 -67 53 -68 58 0 15 28 5 142 -49 114 -54 120 -56 188 -52 87 5 114 24 38 27 -69 2 -139 23 -257 76 -53 23 -132 53 -176 65 -44 12 -93 30 -110 39 l-30 16 28 3 c15 2 69 -4 119 -12 128 -22 252 -21 306 4 23 10 42 21 42 23 0 2 -24 0 -52 -4 -137 -19 -276 -6 -473 47 -164 44 -139 51 -268 -74 -108 -104 -190 -172 -209 -172 -4 0 -8 13 -8 28 0 25 10 34 86 76 103 57 148 100 204 194 79 134 167 192 378 253 61 17 112 35 112 40 0 13 -97 21 -167 14 -204 -22 -413 -144 -553 -325 -36 -47 -85 -105 -109 -130 -46 -47 -43 -41 28 60 24 35 67 116 96 179 29 64 89 176 133 250 88 144 122 231 122 315 0 57 -24 151 -41 162 -8 4 -9 -1 -4 -15 14 -45 6 -139 -15 -190 -24 -56 -115 -147 -247 -250 -111 -85 -194 -176 -251 -274 -54 -93 -63 -84 -32 30 27 98 79 195 165 309 101 132 118 175 121 309 l2 110 -7 -85 c-11 -124 -35 -163 -209 -343 -167 -173 -197 -220 -238 -373 -31 -116 -39 -133 -96 -205 -24 -30 -66 -93 -93 -141 -48 -88 -67 -104 -100 -92 -14 6 -16 15 -12 50 6 57 55 123 136 182 51 37 74 62 99 109 38 73 42 92 7 40 -25 -37 -48 -47 -60 -27 -9 15 11 133 40 236 30 102 77 206 139 308 67 109 89 192 69 266 -5 20 -9 11 -19 -44 -16 -84 -35 -122 -117 -229 -99 -130 -164 -249 -196 -362 -7 -22 -16 -98 -21 -168 l-10 -128 -71 -82 c-73 -84 -79 -103 -55 -158 5 -13 0 -19 -24 -27 -18 -7 -37 -24 -48 -44 -9 -18 -35 -49 -56 -70 -36 -34 -39 -41 -38 -88 1 -56 27 -111 84 -179 l33 -40 5 26 c7 36 22 38 42 6 l16 -27 13 29 c7 17 14 32 15 34 2 1 13 -4 26 -13 33 -23 38 -20 38 24 0 38 12 52 25 30 9 -15 25 -12 25 4 0 8 -7 16 -15 19 -12 5 -12 12 -3 39 8 21 13 27 17 17 3 -7 12 -15 20 -17 10 -2 12 4 7 23 -10 38 3 49 24 23 l19 -23 -2 40 c-2 38 0 41 43 63 67 33 173 27 219 -14 2 -2 -8 -16 -22 -30 -35 -34 -47 -81 -47 -176 0 -71 -3 -83 -42 -160 -49 -95 -92 -132 -145 -126 -40 5 -41 -1 -5 -40 61 -65 122 -46 181 55 58 99 81 133 89 133 15 0 49 -44 56 -72 9 -37 -2 -58 -38 -74 l-31 -13 30 0 c78 -1 94 72 39 181 -28 56 -25 66 35 121 50 45 110 63 149 45 22 -11 28 -21 32 -58 5 -42 6 -43 18 -23 21 38 15 79 -20 119 -25 28 -29 39 -21 52 12 21 98 44 131 35 28 -7 62 -57 62 -93 0 -20 2 -22 10 -10 24 37 -1 123 -44 150 -11 8 -43 17 -69 20 l-49 5 55 33 c93 56 211 53 296 -9 76 -55 93 -138 50 -239 -13 -30 -74 -125 -135 -212 -62 -87 -124 -177 -138 -200 -89 -154 -102 -328 -41 -563 36 -138 80 -225 164 -324 39 -47 102 -135 141 -196 111 -179 236 -297 416 -396 53 -29 64 -31 78 -20 23 20 21 32 -29 131 -53 106 -68 184 -54 291 16 132 77 227 177 276 80 39 173 38 261 -3 l63 -29 -88 0 c-73 0 -98 -5 -136 -23 -52 -26 -125 -101 -134 -139 -10 -37 -23 -27 -26 19 l-4 43 -33 -68 c-32 -65 -33 -71 -29 -160 4 -75 12 -109 42 -184 20 -51 36 -102 36 -114 0 -33 -78 -105 -129 -119 -53 -14 -74 -9 -177 41 -83 41 -108 42 -119 8 -4 -11 -30 -34 -58 -53 -68 -44 -132 -111 -153 -161 l-16 -39 41 37 c45 40 71 50 122 45 l34 -3 -49 -17 c-56 -20 -86 -44 -86 -67 0 -9 -9 -35 -20 -56 -49 -95 -48 -167 4 -242 17 -25 47 -54 66 -66 l35 -21 -26 30 c-70 78 -65 130 24 234 24 28 93 58 105 45 2 -2 -6 -17 -18 -33 -21 -28 -21 -30 -6 -95 28 -119 93 -213 159 -231 18 -4 17 -2 -5 22 -14 15 -31 37 -37 49 -16 31 -14 106 4 129 8 10 15 38 15 60 0 32 7 49 28 72 59 63 130 54 177 -23 39 -63 42 -137 7 -184 -29 -40 -13 -40 32 -1 62 55 77 133 51 257 -7 30 -5 32 37 51 32 14 48 28 56 51 7 17 17 45 24 62 7 19 38 51 87 87 101 76 111 98 110 232 -1 58 -4 118 -8 134 l-6 29 -23 -41 c-13 -23 -29 -71 -37 -108 -7 -36 -16 -69 -19 -72 -11 -10 -6 90 6 150 10 50 10 62 -6 94 -17 36 -17 38 2 56 16 16 44 21 159 30 98 7 150 7 169 0 28 -10 27 -10 -16 -11 -41 -1 -195 -33 -205 -42 -2 -3 1 -40 7 -84 5 -44 8 -117 5 -162 -6 -103 -32 -155 -102 -201 -28 -17 -51 -36 -53 -42 -6 -17 136 -48 256 -56 l87 -6 17 60 c22 75 103 197 171 257 51 45 185 118 241 131 26 6 27 5 18 -13 -6 -11 -49 -54 -96 -97 -94 -85 -168 -177 -199 -246 -21 -48 -32 -41 -25 16 6 50 -12 38 -47 -32 -40 -80 -40 -129 1 -186 42 -57 100 -96 222 -147 101 -43 157 -81 150 -103 -6 -17 -66 -36 -113 -37 -27 -1 -52 7 -77 24 -20 14 -46 25 -58 25 -12 0 -18 5 -15 10 11 17 45 11 78 -14 42 -31 71 -39 110 -30 32 8 32 8 -16 15 -27 4 -66 19 -86 33 -47 33 -75 33 -107 1 -14 -14 -29 -23 -35 -20 -18 12 -97 -33 -113 -64 -22 -41 -21 -58 2 -38 12 11 36 17 70 17 55 0 77 -14 37 -24 -13 -3 -30 -16 -36 -29 -6 -12 -27 -41 -46 -64 -81 -100 -82 -217 -3 -258 41 -21 58 -19 32 5 -40 37 -37 100 3 100 7 0 24 13 37 29 14 16 34 34 46 40 24 13 102 15 102 3 0 -5 -16 -22 -35 -39 -43 -38 -44 -60 -9 -148 30 -75 72 -125 105 -125 21 0 21 1 5 19 -27 29 -31 91 -10 132 9 19 20 47 23 63 4 16 13 34 22 39 25 16 89 -2 121 -33 34 -34 36 -75 8 -137 -23 -51 -15 -54 27 -10 54 55 68 128 37 188 -24 46 -11 79 52 132 68 57 109 63 120 20 l7 -28 13 35 c7 19 13 59 13 89 1 52 -1 56 -44 95 -31 29 -53 62 -75 115 -35 85 -50 106 -100 131 l-35 18 30 7 c63 14 88 30 146 94 33 36 56 57 51 46 -18 -37 -102 -146 -117 -151 -17 -7 160 -210 282 -324 181 -169 361 -260 624 -317 64 -14 128 -18 264 -18 158 0 190 3 260 23 156 45 280 129 346 234 18 29 50 79 71 112 42 65 68 140 68 198 0 21 11 61 25 88 27 53 30 92 15 184 -7 41 -17 68 -35 86 -15 16 -36 60 -50 105 -28 88 -31 94 -104 149 -30 23 -65 50 -79 60 -24 19 -24 19 -18 -2 4 -12 4 -22 -1 -22 -4 0 -56 47 -115 105 l-108 105 -53 0 c-40 0 -61 6 -92 27 -34 23 -51 27 -125 29 -85 3 -88 1 -16 -11 l39 -7 -44 -25 c-34 -20 -59 -26 -114 -27 -81 -2 -109 -17 -150 -77 -32 -46 -43 -119 -26 -171 14 -43 67 -95 109 -107 39 -12 40 -5 5 31 -21 22 -27 40 -30 85 -5 73 15 102 73 110 l39 5 -3 -54 c-3 -50 -2 -52 13 -33 9 11 19 25 23 31 15 25 86 64 116 64 31 0 76 -24 99 -52 6 -9 46 -26 87 -38 41 -12 106 -38 143 -57 37 -20 70 -33 73 -30 4 3 -19 31 -49 61 -31 31 -54 56 -51 56 2 0 22 -11 43 -24 63 -40 118 -110 131 -169 7 -29 34 -93 60 -143 50 -97 67 -172 55 -245 -10 -56 -25 -38 -25 29 0 62 -12 96 -24 67 -3 -9 -6 -57 -6 -107 0 -60 -5 -101 -15 -122 -16 -34 -81 -103 -89 -95 -3 3 1 23 9 44 15 44 20 171 6 179 -4 3 -14 -14 -20 -37 -32 -106 -107 -209 -164 -223 l-29 -7 17 32 c20 40 31 157 17 191 -8 20 -10 11 -6 -40 6 -91 -18 -158 -67 -185 -20 -11 -47 -26 -60 -34 -23 -14 -23 -14 -7 11 16 25 48 120 48 145 0 7 -33 -24 -72 -69 -76 -85 -160 -142 -200 -136 -18 2 -9 11 45 42 37 22 74 47 83 57 14 15 6 14 -53 -6 -104 -37 -201 -30 -125 9 15 8 38 26 51 40 23 25 24 26 4 26 -11 0 -46 -10 -79 -22 -84 -31 -259 -32 -324 -2 l-45 21 46 20 c39 17 89 66 89 87 0 4 -17 3 -38 0 -58 -9 -131 26 -193 94 -27 30 -48 56 -46 59 6 6 94 -47 150 -90 26 -20 64 -39 84 -43 51 -10 137 20 182 62 l36 35 -40 -6 c-85 -12 -230 -16 -215 -6 19 13 15 16 -53 35 -48 14 -69 28 -120 80 -34 34 -70 78 -81 97 -16 29 -12 26 28 -18 50 -56 104 -99 112 -90 3 3 -14 32 -37 64 -45 60 -109 178 -109 201 0 7 16 -3 35 -23 43 -42 72 -51 122 -35 52 16 113 57 113 75 0 18 -18 18 -95 0 -33 -8 -72 -15 -87 -15 -35 0 -101 56 -95 80 3 11 -5 23 -22 33 -32 19 -107 95 -100 101 3 3 32 -12 64 -34 69 -44 113 -56 138 -38 15 12 13 13 -17 14 -25 0 -59 19 -137 74 -57 41 -124 95 -149 120 -25 25 -74 62 -110 83 -35 20 -60 37 -54 37 15 0 87 -24 152 -49 28 -12 52 -17 52 -12 0 15 -130 96 -195 122 -33 13 -62 25 -64 26 -3 2 6 14 19 28 15 16 20 29 14 35 -15 15 -126 41 -147 34 -32 -10 27 60 107 127 222 187 554 247 779 141 82 -38 119 -71 190 -167 33 -44 62 -79 65 -78 4 1 14 23 23 50 47 139 133 266 268 396 136 131 266 207 353 207 18 0 52 -10 76 -21 94 -46 165 -192 272 -557 37 -125 110 -466 110 -512 0 -12 5 -18 10 -15 6 3 10 24 10 46 0 138 87 736 135 927 32 124 83 228 141 286 166 163 358 21 473 -349 45 -144 59 -241 67 -447 l7 -181 33 64 c109 210 129 466 64 830 -99 552 -513 1624 -707 1831 -24 25 -24 28 -9 43 38 38 23 60 -116 171 -73 58 -187 144 -254 191 -107 75 -120 88 -116 110 6 32 -27 67 -98 103 -134 67 -557 250 -676 290 -28 10 -93 23 -145 30 -256 32 -342 49 -394 81 -28 17 -62 39 -75 50 l-25 20 85 -5 c47 -2 96 -7 110 -10 16 -4 13 -1 -10 10 -21 10 -73 19 -130 22 -88 4 -102 8 -195 53 -55 26 -127 55 -160 64 -86 23 -270 29 -317 11z m904 -413 c223 -163 427 -386 585 -638 189 -302 442 -825 583 -1205 160 -432 202 -705 199 -1300 l-2 -265 -13 205 c-40 649 -126 1079 -306 1530 -60 150 -328 695 -429 870 -91 159 -199 322 -285 430 -69 87 -313 336 -394 404 -60 49 -22 31 62 -31z m398 -23 c324 -107 625 -270 906 -487 201 -157 321 -313 475 -619 157 -311 377 -961 454 -1340 52 -257 76 -534 59 -689 l-8 -80 -8 113 c-35 529 -116 874 -326 1397 -83 206 -206 493 -242 565 -181 359 -414 609 -780 839 -136 85 -445 240 -620 311 -148 61 -111 56 90 -10z m-15 -1386 c19 -530 19 -715 1 -757 -19 -46 -38 -59 -161 -107 -506 -201 -1255 -701 -1355 -905 -21 -41 -25 -65 -25 -135 0 -77 3 -92 34 -154 18 -37 52 -91 75 -119 71 -88 61 -86 -24 3 -45 47 -96 108 -115 135 -95 143 -83 287 33 416 144 160 621 460 1162 730 268 134 291 150 310 219 11 43 27 378 36 797 4 161 9 291 11 289 2 -2 10 -188 18 -412z m-3231 24 c-10 -18 -32 -71 -50 -117 -37 -94 -74 -153 -116 -182 l-28 -20 0 26 c0 19 13 39 45 69 30 28 59 72 91 136 44 90 61 120 70 120 3 0 -3 -15 -12 -32z m-325 -282 c-34 -72 -67 -102 -138 -121 -46 -13 -76 -30 -113 -64 -38 -34 -47 -39 -34 -19 19 29 109 105 201 170 29 21 64 50 77 66 31 38 34 25 7 -32z m637 -24 c-18 -16 -18 -16 -6 6 6 13 14 21 18 18 3 -4 -2 -14 -12 -24z m154 0 c0 -5 -11 -14 -24 -21 -13 -8 -29 -23 -34 -35 -6 -11 -11 -15 -11 -8 -1 23 19 53 42 62 29 11 27 11 27 2z m136 -73 c4 -7 0 -9 -12 -5 -11 3 -31 -1 -46 -9 -32 -16 -35 -13 -12 9 18 18 60 21 70 5z m-1005 -101 c-29 -69 -121 -118 -186 -99 -32 9 -26 14 30 26 39 9 65 33 65 61 0 19 9 26 48 37 26 8 50 15 54 16 4 1 -1 -18 -11 -41z m1135 0 c5 -7 2 -9 -9 -5 -8 3 -31 -3 -51 -13 -40 -20 -49 -10 -14 14 26 19 64 21 74 4z m-1246 -6 c0 -15 -34 -40 -65 -48 -34 -8 -31 -2 17 32 35 25 48 29 48 16z m837 2 c-3 -3 -12 -4 -19 -1 -8 3 -5 6 6 6 11 1 17 -2 13 -5z m128 -48 c71 -47 109 -119 109 -206 0 -108 -33 -185 -162 -383 -112 -171 -172 -359 -172 -537 0 -144 42 -273 137 -426 94 -150 94 -164 -1 -27 -72 104 -133 234 -153 326 -17 81 -13 312 7 382 28 98 66 177 126 260 110 151 137 197 166 280 30 86 34 137 17 200 -20 72 -78 132 -156 162 l-38 14 35 -6 c19 -3 58 -20 85 -39z m-1185 -41 c0 -2 -18 -14 -39 -25 -31 -15 -46 -33 -70 -83 -17 -35 -31 -71 -31 -80 0 -20 -4 -21 -31 -7 -29 16 -24 55 11 80 17 12 40 40 51 61 11 22 30 44 42 49 24 9 67 13 67 5z m1477 -21 c25 -22 25 -24 3 -10 -13 9 -40 16 -60 16 -26 0 -31 3 -20 10 25 16 47 11 77 -16z m98 -65 c17 -12 21 -18 10 -13 -36 13 -102 16 -124 5 -26 -14 -29 3 -3 18 29 17 85 12 117 -10z m-1554 -15 c12 -15 11 -16 -8 -10 -13 4 -34 1 -53 -9 -33 -17 -39 -11 -13 17 20 22 56 23 74 2z m1444 -84 c3 -6 -4 -10 -17 -10 -13 0 -34 -7 -47 -17 -18 -12 -23 -13 -19 -2 5 15 45 39 65 39 6 0 15 -4 18 -10z m35 -90 c11 -7 6 -10 -21 -10 -22 0 -47 -9 -64 -22 l-28 -21 12 21 c20 38 68 53 101 32z m-1450 -30 c0 -31 -16 -41 -26 -15 -5 13 11 45 22 45 2 0 4 -13 4 -30z m-75 -48 c-6 -16 -7 -16 -17 2 -8 14 -7 21 3 27 17 10 24 -4 14 -29z m-75 -2 c0 -5 -2 -10 -4 -10 -3 0 -8 5 -11 10 -3 6 -1 10 4 10 6 0 11 -4 11 -10z m1490 -100 c0 -5 -7 -10 -16 -10 -8 0 -12 5 -9 10 3 6 10 10 16 10 5 0 9 -4 9 -10z m124 -41 c14 -11 26 -25 26 -31 0 -6 -9 -3 -21 8 -11 10 -33 24 -47 31 -24 10 -25 11 -6 12 12 1 33 -8 48 -20z m-100 -58 c4 -5 -3 -7 -13 -4 -11 3 -34 -2 -50 -10 -32 -16 -44 -5 -13 12 21 13 69 14 76 2z m97 -120 c19 -19 29 -39 28 -58 l0 -28 -10 25 c-17 41 -50 70 -81 70 -17 0 -27 4 -23 10 12 20 57 10 86 -19z m-141 -31 c11 -7 1 -10 -34 -10 -43 0 -53 -4 -82 -36 -36 -37 -42 -37 -23 -1 26 50 97 74 139 47z m70 -180 c11 -7 6 -10 -22 -10 -20 0 -40 -4 -43 -10 -3 -5 -11 -10 -17 -10 -6 0 -3 9 7 20 19 21 51 26 75 10z m-150 -27 c0 -5 -12 -9 -26 -10 -38 -2 -77 -34 -91 -74 l-12 -34 0 33 c-1 47 45 92 93 92 20 0 36 -3 36 -7z m320 -68 c0 -29 -28 -39 -122 -44 -15 0 -36 -11 -48 -23 -14 -15 -20 -17 -20 -7 1 38 41 59 115 59 48 0 58 3 62 20 7 27 13 25 13 -5z m285 -57 c-37 -13 -62 -34 -87 -73 l-20 -30 6 30 c9 43 59 85 99 84 l32 -1 -30 -10z m-565 -8 c0 -5 -5 -10 -11 -10 -5 0 -7 5 -4 10 3 6 8 10 11 10 2 0 4 -4 4 -10z m854 1 c3 -4 -7 -8 -22 -8 -15 0 -36 -3 -47 -8 -18 -8 -19 -7 -6 8 14 18 66 23 75 8z m-439 -41 c-10 -11 -26 -22 -37 -26 -11 -3 -23 -15 -28 -27 -9 -22 -9 -22 -9 -1 -1 21 -23 46 -51 58 -8 3 1 4 20 2 19 -1 43 -6 52 -10 11 -5 24 0 40 16 27 27 38 16 13 -12z m238 -52 c-25 -5 -57 -23 -78 -42 -33 -32 -48 -29 -22 4 25 32 62 50 102 49 l40 -1 -42 -10z m98 -33 c-16 -35 -31 -46 -31 -22 0 16 28 57 39 57 5 0 1 -16 -8 -35z m-864 -3 c-15 -15 -27 -35 -27 -44 0 -9 -4 -20 -10 -23 -5 -3 -10 3 -10 14 0 22 46 81 63 81 6 0 -1 -13 -16 -28z m375 11 c23 -27 28 -50 18 -75 -8 -21 -9 -20 -9 10 -1 18 -10 41 -21 52 -11 11 -20 22 -20 25 0 11 18 4 32 -12z m-161 -37 c-12 -12 -39 -28 -59 -34 -21 -6 -51 -25 -66 -41 -24 -25 -28 -36 -24 -71 3 -35 2 -39 -9 -24 -26 35 -9 95 37 131 8 7 39 20 67 29 29 8 55 20 58 25 4 5 9 9 12 9 4 0 -3 -11 -16 -24z m35 -180 c4 -36 1 -63 -10 -90 -21 -50 -28 -43 -13 12 8 30 8 50 1 70 -6 15 -8 45 -6 67 4 36 6 37 13 17 5 -13 12 -47 15 -76z m-191 -71 c-14 -39 -14 -39 -15 -9 0 16 5 35 12 42 18 18 18 10 3 -33z m1975 -787 c0 -15 -4 -29 -8 -32 -5 -3 -9 16 -10 41 0 31 3 42 9 32 5 -8 9 -26 9 -41z m-1915 -5 c44 -21 46 -35 3 -22 -45 12 -58 11 -58 -5 0 -15 -42 -46 -62 -46 -7 0 -3 7 8 15 12 8 27 28 34 45 14 35 26 37 75 13z m123 -103 c13 -8 8 -10 -23 -5 -60 8 -104 -9 -160 -65 -27 -27 -68 -56 -90 -63 -23 -8 -42 -22 -45 -33 -7 -26 -38 -69 -45 -62 -3 3 2 21 10 41 8 21 12 37 9 37 -19 0 22 30 49 36 17 3 56 30 87 59 30 29 64 57 75 64 23 13 106 8 133 -9z m3217 -26 c3 -20 2 -41 -3 -46 -6 -6 -11 7 -13 36 -5 55 6 61 16 10z m-1435 -32 c-7 -13 -9 -8 -9 23 0 35 1 37 10 17 6 -15 5 -30 -1 -40z m-1760 -17 c-18 -19 -62 -47 -97 -62 -56 -24 -63 -31 -58 -50 3 -12 -2 -40 -11 -63 -10 -25 -14 -53 -10 -73 l6 -32 -25 28 c-25 28 -25 47 3 79 10 12 12 28 8 50 -8 45 12 71 66 87 55 17 111 45 128 66 7 8 15 13 18 10 3 -3 -9 -21 -28 -40z m1823 28 c21 -24 31 -69 18 -77 -7 -5 -11 2 -11 17 0 13 -9 36 -21 51 -23 29 -11 36 14 9z m1323 -218 c-15 -24 -31 -47 -37 -50 -23 -15 -17 5 18 58 44 65 58 59 19 -8z m-1232 -8 c7 -18 6 -33 -2 -49 -12 -23 -12 -23 -7 3 2 14 -2 34 -10 45 -18 24 -19 37 -2 32 6 -3 16 -16 21 -31z m127 -104 c13 -15 12 -15 -8 -4 -24 12 -29 21 -14 21 5 0 15 -7 22 -17z m939 -43 c0 -9 -70 -50 -86 -50 -14 0 23 34 51 46 37 16 35 16 35 4z m-826 -61 c5 -15 5 -39 0 -55 -8 -29 -8 -28 -12 11 -2 26 -11 46 -25 58 l-22 18 25 -3 c16 -2 28 -12 34 -29z m116 9 c0 -6 -6 -5 -15 2 -8 7 -15 14 -15 16 0 2 7 1 15 -2 8 -4 15 -11 15 -16z m510 7 c0 -2 -15 -12 -32 -21 l-33 -17 19 22 c17 19 46 29 46 16z m-1640 -30 c-37 -39 -100 -59 -164 -50 -31 3 -65 4 -76 0 -18 -6 -19 -8 -4 -29 14 -23 13 -24 -42 -55 -65 -38 -81 -35 -30 4 28 22 36 34 36 60 0 39 11 45 88 45 62 0 155 19 187 38 30 17 31 15 5 -13z m1220 15 c8 -5 12 -11 9 -14 -3 -3 -14 1 -25 9 -21 16 -8 20 16 5z m560 -20 c0 -5 -14 -10 -31 -10 -17 0 -28 4 -24 10 3 6 17 10 31 10 13 0 24 -4 24 -10z m-104 -25 c18 -14 17 -14 -13 -15 -17 0 -38 -3 -47 -6 -9 -3 -16 -1 -16 5 0 7 10 16 23 21 30 12 31 12 53 -5z m-1661 -110 c-22 -13 -49 -25 -60 -25 -38 0 -63 -28 -71 -75 -3 -25 -10 -45 -16 -45 -5 0 -20 -12 -33 -26 l-25 -27 0 26 c0 17 10 33 29 47 21 14 32 33 38 61 8 39 10 41 73 63 90 32 115 32 65 1z"/><path d="M4055 6271 c-22 -9 7 -13 270 -30 196 -12 337 -46 395 -95 8 -7 56 -30 105 -51 50 -20 122 -53 160 -72 39 -18 61 -26 50 -17 -11 9 -60 36 -110 59 -49 24 -119 57 -155 74 -36 17 -85 42 -110 55 -61 33 -172 54 -347 67 -82 5 -168 12 -193 14 -25 3 -54 1 -65 -4z"/><path d="M860 6125 c-38 -17 -76 -50 -91 -77 -8 -14 -5 -15 25 -6 23 7 43 7 64 0 23 -8 38 -6 73 10 55 25 101 19 182 -24 97 -52 152 -108 195 -201 40 -86 83 -133 130 -143 57 -12 103 -39 156 -90 96 -93 126 -188 126 -392 0 -126 0 -128 -36 -196 -19 -38 -54 -94 -77 -125 -58 -75 -66 -91 -32 -61 32 29 125 166 125 186 0 7 4 15 9 18 8 6 8 -31 -3 -161 l-3 -43 29 21 c16 12 60 32 96 45 75 26 200 32 277 13 80 -20 80 -17 3 136 -113 224 -253 433 -393 585 -109 118 -111 126 -6 25 176 -171 302 -333 447 -575 l69 -114 12 39 11 40 1 -46 c1 -69 18 -146 45 -205 l25 -53 -73 -83 c-77 -89 -106 -112 -152 -125 -28 -7 -27 -8 16 -15 90 -14 336 -21 369 -10 38 13 40 4 4 -30 -46 -41 -85 -65 -157 -94 -37 -14 -64 -30 -59 -35 4 -4 48 -19 97 -33 91 -27 185 -33 230 -16 36 13 32 0 -11 -42 -49 -47 -112 -78 -173 -85 l-49 -6 87 -95 c72 -79 99 -101 157 -128 101 -48 35 -50 -102 -4 -46 16 -83 25 -83 21 0 -15 134 -162 164 -179 17 -11 58 -29 91 -42 77 -30 85 -37 44 -44 -185 -27 -214 -35 -192 -57 18 -18 90 -28 211 -29 61 0 112 -3 112 -7 -1 -13 -80 -68 -158 -109 -40 -21 -87 -52 -104 -69 l-31 -30 25 -3 c13 -2 71 4 129 12 76 12 122 25 172 49 37 18 67 32 67 30 0 -17 -62 -79 -99 -101 -34 -20 -41 -28 -27 -30 50 -10 86 9 156 82 82 84 153 124 250 139 l65 11 -22 65 c-57 168 3 331 123 331 38 0 51 -6 89 -41 24 -22 58 -63 76 -90 17 -27 33 -48 36 -46 2 3 -3 33 -11 68 -44 189 -134 392 -245 550 -32 46 -126 163 -207 259 -82 97 -184 219 -227 272 -72 89 -77 97 -66 121 17 37 -3 63 -98 130 -83 59 -279 224 -405 342 -58 55 -92 78 -140 96 -35 13 -92 43 -128 68 -84 57 -108 67 -221 86 -125 22 -192 42 -225 67 -15 12 -54 29 -88 38 -58 16 -59 17 -37 30 17 8 49 11 105 7 l81 -6 -50 14 c-71 19 -115 18 -157 -3 -39 -20 -39 -20 -113 27 l-40 25 55 12 55 13 -70 -6 c-68 -5 -72 -4 -142 36 -154 89 -286 120 -363 86z m1157 -501 c246 -133 459 -284 621 -438 172 -165 496 -556 649 -786 61 -92 187 -310 181 -315 -2 -2 -23 29 -47 68 -66 107 -215 316 -329 458 -327 413 -653 715 -1041 967 -65 42 -127 83 -137 89 -37 24 32 -5 103 -43z"/><path d="M1448 5993 c6 -2 18 -2 25 0 6 3 1 5 -13 5 -14 0 -19 -2 -12 -5z"/><path d="M5106 5961 c5 -5 36 -18 69 -31 100 -36 194 -91 231 -133 18 -22 34 -36 34 -31 0 6 -16 29 -36 53 -39 45 -112 86 -223 126 -73 27 -91 30 -75 16z"/><path d="M1655 5865 c-29 -14 -24 -14 38 1 19 4 43 -1 80 -19 35 -17 75 -26 125 -30 57 -3 88 -12 143 -39 76 -38 94 -34 27 6 -51 30 -146 56 -203 56 -22 0 -58 9 -80 20 -46 23 -88 25 -130 5z"/><path d="M2250 5640 c106 -53 135 -73 193 -132 77 -78 72 -53 -6 29 -37 39 -76 65 -151 102 -55 27 -114 53 -131 56 -16 4 26 -21 95 -55z"/><path d="M1075 5413 c21 -51 27 -96 23 -168 -5 -87 -34 -159 -104 -257 -19 -27 -29 -48 -24 -48 17 0 109 133 131 190 30 77 31 188 2 253 -12 26 -25 47 -29 47 -3 0 -3 -8 1 -17z"/><path d="M1421 5253 c-1 -91 -30 -154 -119 -268 -77 -98 -122 -171 -122 -197 1 -7 12 7 25 32 13 25 51 78 85 119 119 140 162 241 142 333 l-10 43 -1 -62z"/><path d="M1391 5009 c-35 -38 -61 -72 -58 -75 5 -6 103 99 118 127 16 31 6 23 -60 -52z"/><path d="M1028 4943 c-65 -69 -102 -129 -134 -221 -38 -107 -27 -128 12 -24 45 118 83 184 142 244 25 26 43 50 40 53 -2 3 -29 -21 -60 -52z"/><path d="M2195 4835 c-16 -13 -117 -59 -222 -100 -106 -42 -196 -81 -199 -87 -5 -7 46 -9 167 -6 141 5 187 10 241 27 l67 21 -16 37 c-9 24 -13 55 -11 85 3 26 5 48 4 48 -1 0 -14 -11 -31 -25z"/><path d="M1628 4821 c-56 -36 -144 -119 -135 -128 4 -3 33 18 64 48 32 30 74 66 93 81 46 36 35 35 -22 -1z"/><path d="M2105 4609 c-38 -10 -123 -24 -187 -31 -65 -7 -118 -16 -118 -20 0 -14 203 -9 263 7 32 8 75 26 95 40 43 29 40 29 -53 4z"/><path d="M860 3996 c-32 -12 -35 -16 -32 -47 7 -89 6 -299 -2 -299 -4 0 -5 -11 -2 -25 5 -18 1 -27 -13 -34 -21 -12 -19 -42 5 -62 24 -20 60 15 99 94 45 92 55 149 30 177 -15 17 -16 20 -3 20 12 0 17 15 20 60 3 41 11 70 26 89 18 25 19 30 6 35 -26 10 -97 5 -134 -8z m80 -246 c11 -7 12 -12 3 -21 -8 -8 -14 -6 -22 10 -12 22 -5 27 19 11z m-10 -66 c0 -9 -5 -14 -12 -12 -18 6 -21 28 -4 28 9 0 16 -7 16 -16z m-29 -47 c-1 -12 -15 -9 -19 4 -3 6 1 10 8 8 6 -3 11 -8 11 -12z m-16 -46 c-8 -13 -35 -15 -35 -2 0 5 8 11 18 13 21 5 26 2 17 -11z m-35 -41 c0 -6 -9 -5 -20 2 -11 7 -20 16 -20 21 0 4 9 3 20 -3 11 -6 20 -15 20 -20z"/><path d="M741 3536 c9 -20 20 -26 42 -26 17 0 28 1 26 3 -2 2 -21 14 -42 26 l-37 23 11 -26z"/><path d="M3505 2711 c44 -15 95 -35 113 -45 19 -10 36 -15 39 -13 15 16 -156 88 -205 86 -18 0 0 -10 53 -28z"/><path d="M3550 2616 c0 -2 44 -33 98 -69 53 -36 122 -88 154 -116 31 -28 60 -51 64 -51 15 0 -91 102 -151 145 -56 40 -165 100 -165 91z"/><path d="M1513 2494 c12 -119 71 -231 158 -299 45 -35 167 -91 176 -81 3 3 -10 24 -29 48 -19 24 -54 72 -78 107 -39 58 -178 232 -218 271 -13 13 -14 8 -9 -46z"/><path d="M4371 2423 c-17 -3 -20 -7 -11 -13 8 -5 -6 -15 -41 -28 -41 -16 -48 -21 -28 -21 14 -1 44 11 65 25 21 15 59 30 84 34 l45 8 -45 -1 c-25 0 -56 -2 -69 -4z"/><path d="M4885 2394 c33 -14 66 -28 73 -31 6 -3 12 -2 12 1 0 10 -103 56 -125 56 -11 0 7 -12 40 -26z"/><path d="M3769 2357 c21 -27 145 -115 184 -132 20 -8 47 -15 59 -15 17 1 14 4 -14 14 -39 14 -110 56 -193 115 -27 20 -44 28 -36 18z"/><path d="M5030 2337 c0 -3 21 -19 48 -36 58 -37 70 -47 105 -89 32 -40 35 -33 7 14 -24 39 -160 133 -160 111z"/><path d="M5276 2175 c9 -22 27 -76 41 -120 29 -98 43 -135 53 -135 13 0 -71 245 -96 276 -12 15 -11 11 2 -21z"/><path d="M4875 2105 c87 -66 127 -103 165 -155 73 -98 83 -108 54 -51 -46 88 -153 193 -219 214 l-20 7 20 -15z"/><path d="M3970 2080 c0 -16 60 -41 91 -38 27 3 23 5 -31 25 -33 12 -60 18 -60 13z"/><path d="M4039 1866 c19 -23 99 -46 157 -46 79 0 73 15 -7 17 -44 1 -85 9 -115 22 -32 14 -43 16 -35 7z"/><path d="M5098 1749 c67 -147 63 -139 56 -99 -7 43 -58 153 -79 170 -8 7 2 -25 23 -71z"/><path d="M4119 1757 c28 -35 235 -72 275 -50 13 7 -3 12 -66 16 -75 6 -150 22 -203 43 -18 7 -18 6 -6 -9z"/><path d="M4315 1505 c41 -20 64 -25 130 -24 44 0 89 4 100 9 13 6 -5 7 -50 4 -65 -6 -111 1 -210 30 -11 4 3 -5 30 -19z"/><path d="M4756 1495 c-21 -19 -58 -44 -82 -56 -50 -24 -70 -45 -33 -34 34 9 129 77 147 103 19 30 14 27 -32 -13z"/></g><text x="0" y="715" fill="#000000" font-size="5px" font-weight="bold" font-family="'Helvetica Neue', Helvetica, Arial-Unicode, Arial, Sans-serif">Created by okja</text><text x="0" y="720" fill="#000000" font-size="5px" font-weight="bold" font-family="'Helvetica Neue', Helvetica, Arial-Unicode, Arial, Sans-serif">from the Noun Project</text></svg>