<?xml version="1.0" encoding="UTF-8"?>
<svg version="1.1" xmlns="http://www.w3.org/2000/svg" width="512" height="512">
<path d="M0 0 C0.69932648 0.00182281 1.39865295 0.00364563 2.11917114 0.00552368 C13.0596396 0.05340217 23.60726669 0.6242788 34.25 3.3125 C35.29269043 3.56990967 35.29269043 3.56990967 36.35644531 3.83251953 C63.79272998 10.80056369 86.66976848 24.02778665 107.25 43.3125 C108.23226562 44.18068359 108.23226562 44.18068359 109.234375 45.06640625 C110.9375 46.625 110.9375 46.625 113.25 49.3125 C112.89453125 51.48046875 112.89453125 51.48046875 112.25 53.3125 C102.24123223 51.83870583 92.64381201 49.02086505 82.9375 46.25 C80.50591565 45.55812502 78.07392526 44.86780979 75.64082336 44.18128967 C74.13842123 43.75718202 72.63688515 43.32998959 71.13639832 42.89915466 C63.97693654 40.44187049 63.97693654 40.44187049 56.82714844 41.32324219 C53.31499018 44.03421845 50.17128979 47.02627984 47.015625 50.140625 C46.33699402 50.80785583 45.65836304 51.47508667 44.95916748 52.16253662 C43.53102279 53.57184394 42.10572241 54.98403871 40.68310547 56.39892578 C38.50713233 58.55543148 36.3107694 60.68967052 34.11328125 62.82421875 C32.72524819 64.19919531 31.33848546 65.5754557 29.953125 66.953125 C29.2958844 67.585672 28.6386438 68.21821899 27.96148682 68.86993408 C24.92074952 71.94086698 23.39654256 73.81096959 22.16113281 78.0390625 C22.25839654 81.62178793 22.49427 82.56238265 24.96875 85.046875 C25.61714844 85.71525391 26.26554688 86.38363281 26.93359375 87.07226562 C27.69800781 87.81154297 28.46242188 88.55082031 29.25 89.3125 C30.12785156 90.18068359 31.00570312 91.04886719 31.91015625 91.94335938 C35.35432289 95.33561136 38.81216395 98.71440104 42.31054688 102.05078125 C43.8121826 103.4861405 45.29765828 104.93665459 46.78125 106.390625 C47.66361328 107.24043945 48.54597656 108.09025391 49.45507812 108.96582031 C51.25 111.3125 51.25 111.3125 51.18554688 113.46386719 C49.77266508 116.25570981 47.45037946 118.11212054 45.25 120.3125 C44.0923415 122.19207244 44.0923415 122.19207244 44.25 124.3125 C45.63537389 127.85289993 47.42638709 130.63487038 49.8671875 133.5078125 C50.65351563 134.43335938 51.43984375 135.35890625 52.25 136.3125 C51.59773437 137.23289063 50.94546875 138.15328125 50.2734375 139.1015625 C44.41672216 147.51876829 39.75877782 155.62474236 36.25 165.3125 C35.86070312 166.36179687 35.47140625 167.41109375 35.0703125 168.4921875 C33.23368816 174.08249664 32.17726869 178.91272541 32.08984375 184.78125 C31.74108931 201.9311785 31.74108931 201.9311785 25.15942383 208.90893555 C21.98165003 211.88230676 18.67152991 214.62674198 15.25 217.3125 C13.9095001 218.51287796 12.57423567 219.71920319 11.25 220.9375 C9.91693335 222.062816 8.58355259 223.18775991 7.25 224.3125 C6.14164708 225.28204855 5.03505833 226.25361547 3.9296875 227.2265625 C-3.88078474 234.0865594 -11.83819849 240.68240017 -20.07666016 247.02148438 C-21.69708677 248.27167637 -23.30853807 249.53257278 -24.91796875 250.796875 C-39.13843875 261.89060812 -53.97794758 272.93192872 -69.609375 281.96484375 C-71.87684296 283.13397449 -71.87684296 283.13397449 -72.75 285.3125 C-71.945625 285.56 -71.14125 285.8075 -70.3125 286.0625 C-66.75 287.3125 -66.75 287.3125 -64.76513672 288.51831055 C-62.3898785 289.89330374 -60.45008004 290.78227523 -57.75 291.3125 C-54.05894771 290.07163342 -51.32269278 287.79821119 -48.3125 285.375 C-47.01650879 284.39768921 -47.01650879 284.39768921 -45.69433594 283.40063477 C-43.90334775 282.04954702 -42.12193085 280.68568221 -40.35009766 279.30957031 C-37.20492244 276.89383949 -33.97932299 274.61043654 -30.73632812 272.32885742 C-22.01328838 266.17035327 -13.69929798 259.56506363 -5.48535156 252.74804688 C-3.06911933 250.74925037 -0.62628718 248.78367312 1.8125 246.8125 C14.74340711 236.19757626 27.41497709 225.14752291 39.25 213.3125 C40.62090774 213.13329515 41.99958742 213.01274209 43.37890625 212.91796875 C66.55272246 211.14069616 87.36878778 205.57830479 106.25 191.3125 C109.14638128 192.53789208 110.73497655 193.77592204 113.0625 196 C116.0674469 198.6204303 116.0674469 198.6204303 119.75 198.5 C124.30493824 196.95457453 126.11106278 194.91079388 129.25 191.3125 C133.01678971 192.90037388 135.62085951 195.25282891 138.5625 198.0625 C139.46613281 198.90296875 140.36976563 199.7434375 141.30078125 200.609375 C143.25 203.3125 143.25 203.3125 143.26171875 206.140625 C142.02369947 210.02198274 140.50973042 213.64133104 138.75 217.3125 C138.39687744 218.05435547 138.04375488 218.79621094 137.67993164 219.56054688 C130.42587915 234.43445586 120.51012206 247.25080993 109.25 259.3125 C108.55132812 260.0653125 107.85265625 260.818125 107.1328125 261.59375 C87.80395854 281.70142225 62.05215611 294.56682568 35.25 301.3125 C34.55986816 301.49184082 33.86973633 301.67118164 33.15869141 301.85595703 C5.51738012 308.71013099 -29.01684695 306.15222296 -55.15234375 294.83984375 C-60.61372014 294.03931627 -63.61832914 296.54976365 -68.125 299.4375 C-69.99193547 300.56421077 -71.86322342 301.68373379 -73.73828125 302.796875 C-74.71748535 303.37888672 -75.69668945 303.96089844 -76.70556641 304.56054688 C-98.17751948 316.91682075 -126.36325435 330.6074043 -151.9375 324.55859375 C-154.33570108 323.6263662 -156.51620657 322.58452126 -158.75 321.3125 C-159.8225 320.755625 -160.895 320.19875 -162 319.625 C-168.2643443 314.35725593 -172.10110862 307.44293026 -172.96875 299.24584961 C-174.39535381 272.76154425 -163.71839461 248.91662915 -150.75 226.3125 C-145.8519358 230.90841089 -140.78559455 236.45263651 -139.75 243.3125 C-140.92209093 249.62869503 -144.48244566 255.24969349 -147.50537109 260.83935547 C-149.35785032 264.52033126 -150.59441691 268.30372304 -151.75 272.25 C-152.12125 273.49652344 -152.4925 274.74304688 -152.875 276.02734375 C-154.25692165 281.21571924 -154.92981032 285.86294199 -155 291.25 C-155.02578125 292.43464844 -155.0515625 293.61929687 -155.078125 294.83984375 C-154.70577313 298.78056775 -153.96875285 301.03564443 -151.75 304.3125 C-144.59514193 309.0589907 -136.24136281 308.12036826 -128.1015625 306.65625 C-112.96655092 302.91283562 -99.18542063 296.25774402 -85.52880859 288.86889648 C-84.24804443 288.17775757 -84.24804443 288.17775757 -82.94140625 287.47265625 C-82.18029541 287.05636963 -81.41918457 286.64008301 -80.63500977 286.21118164 C-78.75 285.3125 -78.75 285.3125 -76.75 285.3125 C-76.75 284.6525 -76.75 283.9925 -76.75 283.3125 C-77.44996094 283.06371094 -78.14992188 282.81492187 -78.87109375 282.55859375 C-89.59706534 277.91600903 -98.44690433 269.3296764 -106.75 261.3125 C-107.60335937 260.52230469 -108.45671875 259.73210937 -109.3359375 258.91796875 C-129.22628915 240.00017372 -142.24732159 213.74451393 -148.75 187.3125 C-149.07097656 186.03246094 -149.39195312 184.75242187 -149.72265625 183.43359375 C-154.24234633 162.87076744 -153.86155524 137.69713597 -148.75 117.3125 C-148.57839355 116.61495605 -148.40678711 115.91741211 -148.22998047 115.19873047 C-141.63510886 88.99015672 -128.28033486 65.88593318 -109.75 46.3125 C-108.52023438 44.98605469 -108.52023438 44.98605469 -107.265625 43.6328125 C-79.57859648 14.7170697 -39.61214236 -0.21563979 0 0 Z " fill="#000000" transform="translate(255.75,103.6875)"/>
<path d="M0 0 C0.92818491 16.60419669 -2.10549391 33.50080038 -8 49 C-8.24733887 49.65274902 -8.49467773 50.30549805 -8.74951172 50.97802734 C-14.91373693 66.84713443 -23.51485208 80.23251383 -35.43626404 92.35420227 C-36.95231472 93.9498123 -38.36294892 95.5981918 -39.78076172 97.28125 C-45.66750793 104.0293016 -52.12386094 110.24640108 -58.46484375 116.5625 C-59.86753391 117.96332215 -61.27000128 119.36436743 -62.67225647 120.765625 C-66.3409754 124.43054887 -70.01268878 128.09245808 -73.68505859 131.75372314 C-77.44095978 135.49934506 -81.19398711 139.24784413 -84.94726562 142.99609375 C-92.29538554 150.33352953 -99.6466758 157.66778005 -107 165 C-110.89395116 163.41600411 -113.51152235 160.75803057 -116.41113281 157.81591797 C-117.20204819 157.02544067 -117.20204819 157.02544067 -118.00894165 156.21899414 C-119.74512072 154.48142524 -121.474114 152.73688686 -123.203125 150.9921875 C-124.40766437 149.78391678 -125.61264697 148.57608778 -126.8180542 147.36868286 C-129.98548106 144.19362923 -133.14685513 141.01261478 -136.30700684 137.83032227 C-139.53437089 134.58247924 -142.76742228 131.34030867 -146 128.09765625 C-152.33891303 121.73731018 -158.67144624 115.37065247 -165 109 C-163.67164038 106.06015633 -162.22204694 103.96599376 -159.95739746 101.67651367 C-159.33277115 101.04046707 -158.70814484 100.40442047 -158.06459045 99.74909973 C-157.38005295 99.06232651 -156.69551544 98.37555328 -155.99023438 97.66796875 C-155.26783066 96.93563522 -154.54542694 96.2033017 -153.8011322 95.44877625 C-151.40430289 93.02270009 -148.99972166 90.60450803 -146.59375 88.1875 C-144.91337055 86.49560569 -143.23299132 84.80371115 -141.5526123 83.11181641 C-138.01895481 79.55712951 -134.48064286 76.00714241 -130.93994141 72.45947266 C-126.44374568 67.95239001 -121.96635113 63.42712384 -117.49340057 58.89698792 C-114.0219237 55.38789055 -110.53673936 51.89264281 -107.04792786 48.40078735 C-105.39423169 46.74110538 -103.74545483 45.07650452 -102.10209656 43.40658569 C-73.94246978 14.82509389 -40.44046906 -1.27706744 0 0 Z M-75.3125 41.3125 C-79.71566599 46.97542738 -81.61137875 52.2915562 -81.33984375 59.44921875 C-80.35718906 66.82477636 -76.97429243 71.95912825 -71.203125 76.5546875 C-65.49900744 80.29675044 -59.9490949 81.68419254 -53.1953125 80.56640625 C-45.97079371 78.70242898 -41.18520956 75.15395299 -37 69 C-33.46181757 62.74921104 -33.04477586 56.7847263 -34.43359375 49.828125 C-36.55409922 43.03197084 -41.19326506 38.74017566 -47.125 35.0625 C-57.33681287 31.37426059 -68.02737811 33.42324606 -75.3125 41.3125 Z " fill="#000000" transform="translate(483,120)"/>
<path d="M0 0 C4.73008124 3.95538736 9.22621305 8.06700223 13.58984375 12.421875 C14.17923233 13.00793518 14.76862091 13.59399536 15.37586975 14.19781494 C16.60645284 15.42337924 17.83572544 16.65026072 19.0637207 17.87841797 C20.95180504 19.76428826 22.84778372 21.64198401 24.74414062 23.51953125 C25.94319599 24.71565718 27.14178123 25.91225462 28.33984375 27.109375 C28.90847641 27.67082214 29.47710907 28.23226929 30.06297302 28.81072998 C34 32.77114221 34 32.77114221 34 35 C18.80764494 46.81289331 1.79482624 51.25539623 -17 52 C-18.08053486 32.3902932 -10.86617582 15.79028164 0 0 Z " fill="#000000" transform="translate(318,250)"/>
<path d="M0 0 C1.31425095 4.60426044 2.61383189 9.21231955 3.90014648 13.82446289 C4.33952094 15.39199157 4.78284324 16.95841937 5.23022461 18.52368164 C5.87360749 20.7773109 6.50256229 23.03455301 7.12890625 25.29296875 C7.33093155 25.98899704 7.53295685 26.68502533 7.74110413 27.40214539 C8.7986693 31.27604394 9.47827926 34.20596138 8 38 C5.95874023 40.49536133 5.95874023 40.49536133 3.30859375 43.08203125 C2.84389175 43.54107346 2.37918976 44.00011566 1.90040588 44.47306824 C0.42193317 45.92924735 -1.06986157 47.37085904 -2.5625 48.8125 C-3.57057507 49.80050098 -4.5777473 50.78942404 -5.58398438 51.77929688 C-8.04562454 54.19696393 -10.51940673 56.60176584 -13 59 C-16.66752005 57.4608199 -18.98580573 55.24514548 -21.765625 52.4296875 C-22.65507812 51.53378906 -23.54453125 50.63789063 -24.4609375 49.71484375 C-25.38132812 48.77769531 -26.30171875 47.84054687 -27.25 46.875 C-28.19484856 45.92011363 -29.14015633 44.96568141 -30.0859375 44.01171875 C-32.39518338 41.67890913 -34.69963203 39.34155914 -37 37 C-35.64218786 33.9691582 -34.11581436 31.86349327 -31.77539062 29.51660156 C-31.12131226 28.85621887 -30.46723389 28.19583618 -29.79333496 27.51544189 C-29.08809692 26.81425232 -28.38285889 26.11306274 -27.65625 25.390625 C-26.93135376 24.66381531 -26.20645752 23.93700562 -25.45959473 23.18817139 C-23.92880989 21.65602721 -22.39550303 20.12639925 -20.85986328 18.59912109 C-18.5018923 16.25188369 -16.15480454 13.89414222 -13.80859375 11.53515625 C-12.32095364 10.04883718 -10.83269356 8.56313831 -9.34375 7.078125 C-8.63851196 6.3688385 -7.93327393 5.659552 -7.20666504 4.92877197 C-6.55258667 4.28099792 -5.8985083 3.63322388 -5.22460938 2.96582031 C-4.36095764 2.10455536 -4.36095764 2.10455536 -3.4798584 1.22589111 C-2 0 -2 0 0 0 Z " fill="#000000" transform="translate(434,248)"/>
<path d="M0 0 C-1.36113013 3.04581486 -2.89330096 5.13839026 -5.25634766 7.48339844 C-5.91688141 8.14378113 -6.57741516 8.80416382 -7.25796509 9.48455811 C-7.96947723 10.18574768 -8.68098938 10.88693726 -9.4140625 11.609375 C-10.14370209 12.33618469 -10.87334167 13.06299438 -11.62509155 13.81182861 C-13.9537388 16.12929198 -16.28924826 18.4396995 -18.625 20.75 C-20.20618653 22.32115444 -21.78692125 23.89276371 -23.3671875 25.46484375 C-27.2395669 29.31518653 -31.11760171 33.15976117 -35 37 C-38.93088136 33.68400925 -42.77715018 30.34860835 -46.40234375 26.6953125 C-47.51899414 25.57382813 -47.51899414 25.57382813 -48.65820312 24.4296875 C-49.41037109 23.66914063 -50.16253906 22.90859375 -50.9375 22.125 C-51.71673828 21.34125 -52.49597656 20.5575 -53.29882812 19.75 C-55.20154085 17.83561419 -57.10186171 15.91891966 -59 14 C-58.15308594 13.03964844 -57.30617188 12.07929688 -56.43359375 11.08984375 C-53.99993039 8.28187971 -51.87771896 5.3845344 -49.78515625 2.31640625 C-35.62525544 -16.6157764 -18.72975997 -7.56259061 0 0 Z " fill="#000000" transform="translate(354,169)"/>
<path d="M0 0 C4.8846525 2.26787438 7.73212562 5.1153475 10 10 C10.75381535 15.5997712 10.77303575 20.33499991 8.375 25.5 C3.80134327 30.3143755 0.6912538 32.25156236 -6 32.5 C-12.6912538 32.25156236 -15.80134327 30.3143755 -20.375 25.5 C-22.77303575 20.33499991 -22.75381535 15.5997712 -22 10 C-17.52212837 0.3553534 -9.85292056 -1.32635469 0 0 Z " fill="#000000" transform="translate(46,176)"/>
<path d="M0 0 C2.375 1.625 2.375 1.625 4 4 C4.72125695 8.40768137 4.52001338 10.25937488 1.9375 13.9375 C-1.72903411 16.51187502 -3.60406563 16.63940864 -8 16 C-10.375 15 -10.375 15 -12 13 C-12.90502914 10.28491259 -13.24486492 7.85490231 -13 5 C-9.59702063 -0.71214394 -6.3127196 -1.67480316 0 0 Z " fill="#000000" transform="translate(430,169)"/>
<path d="M0 0 C2.5 1.5 2.5 1.5 4 4 C4.791013 8.02098277 4.62153384 10.96411027 2.5 14.5 C-1.03588973 16.62153384 -3.97901723 16.791013 -8 16 C-10.5 14.5 -10.5 14.5 -12 12 C-12.791013 7.97901723 -12.62153384 5.03588973 -10.5 1.5 C-6.96411027 -0.62153384 -4.02098277 -0.791013 0 0 Z " fill="#000000" transform="translate(316,472)"/>
<path d="M0 0 C2.5 1.5 2.5 1.5 4 4 C4.791013 8.02098277 4.62153384 10.96411027 2.5 14.5 C-1.03588973 16.62153384 -3.97901723 16.791013 -8 16 C-10.5 14.5 -10.5 14.5 -12 12 C-12.791013 7.97901723 -12.62153384 5.03588973 -10.5 1.5 C-6.96411027 -0.62153384 -4.02098277 -0.791013 0 0 Z " fill="#000000" transform="translate(460,380)"/>
<path d="M0 0 C2.5 1.5 2.5 1.5 4 4 C4.791013 8.02098277 4.62153384 10.96411027 2.5 14.5 C-1.03588973 16.62153384 -3.97901723 16.791013 -8 16 C-10.5 14.5 -10.5 14.5 -12 12 C-12.791013 7.97901723 -12.62153384 5.03588973 -10.5 1.5 C-6.96411027 -0.62153384 -4.02098277 -0.791013 0 0 Z " fill="#000000" transform="translate(388,64)"/>
<path d="M0 0 C2.5 1.5 2.5 1.5 4 4 C4.791013 8.02098277 4.62153384 10.96411027 2.5 14.5 C-1.03588973 16.62153384 -3.97901723 16.791013 -8 16 C-10.5 14.5 -10.5 14.5 -12 12 C-12.791013 7.97901723 -12.62153384 5.03588973 -10.5 1.5 C-6.96411027 -0.62153384 -4.02098277 -0.791013 0 0 Z " fill="#000000" transform="translate(100,64)"/>
</svg>
